<?xml version="1.0" standalone="no"?><!DOCTYPE svg PUBLIC "-//W3C//DTD SVG 1.1//EN" "http://www.w3.org/Graphics/SVG/1.1/DTD/svg11.dtd"><svg t="1715755382438" class="icon" viewBox="0 0 1024 1024" version="1.1" xmlns="http://www.w3.org/2000/svg" p-id="4703" xmlns:xlink="http://www.w3.org/1999/xlink" width="200" height="200"><path d="M519.2704 97.8944c-230.144 0-416.7168 186.5728-416.7168 416.7168s186.5728 416.7168 416.7168 416.7168 416.7168-186.5728 416.7168-416.7168-186.5728-416.7168-416.7168-416.7168zM397.9776 376.7296c0-67.0208 54.3232-121.344 121.344-121.344s121.344 54.3232 121.344 121.344v124.3648c0 67.0208-54.3232 121.344-121.344 121.344s-121.344-54.3232-121.344-121.344V376.7296z m145.2032 333.9264v63.1808c0 12.5952-10.24 22.8352-22.8352 22.8352s-22.8352-10.24-22.8352-22.8352v-62.9248c-101.9904-10.9056-181.76-97.4336-181.76-202.2912 0-12.5952 10.24-22.8352 22.8352-22.8352s22.8352 10.24 22.8352 22.8352c0 87.04 70.8096 157.8496 157.8496 157.8496s157.8496-70.8096 157.8496-157.8496c0-12.5952 10.24-22.8352 22.8352-22.8352s22.8352 10.24 22.8352 22.8352c-0.0512 104.1408-78.6432 190.1568-179.6096 202.0352z" fill="#38aeec" p-id="4704" data-spm-anchor-id="a313x.search_index.0.i0.54d53a81ldsFmc" class="selected"></path></svg>